<svg width="580" height="400" xmlns="http://www.w3.org/2000/svg">
 <!-- Created with SVG Editor - http://github.com/mzalive/SVG Editor/ -->

 <g>
  <title>background</title>
  <rect x="-1" y="-1" width="582" height="402" id="canvas_background" fill="#fff"/>
  <g id="canvasGrid" display="none">
   <rect id="svg_1" width="100%" height="100%" x="0" y="0" stroke-width="0" fill="url(#gridpattern)"/>
  </g>
 </g>
 <g>
  <title>Layer 1</title>
  <path id="svg_2" d="m372.595069,283.737711c-18.449754,-7.073783 -25.816617,-26.514973 -25.816617,-26.514973s-8.312168,4.403547 -8.312168,-7.963861s8.312168,7.963861 16.624337,-39.788075c0,0 23.045894,-6.199319 18.449754,-57.464723l-5.541446,0c0,0 13.837316,-54.810103 0,-73.37683c-13.853614,-18.566727 -19.378761,-30.934135 -49.840413,-39.788075s-19.362463,-7.089398 -41.511947,-6.183704c-22.149484,0.890079 -40.615536,12.367408 -40.615536,18.551112c0,0 -13.837316,0.890079 -19.362463,6.199319c-5.541446,5.309241 -14.766323,30.044056 -14.766323,36.243376s4.612439,47.751936 9.224877,56.59026l-5.49255,1.764542c-4.612439,51.265404 18.449754,57.464723 18.449754,57.464723c8.29587,47.751936 16.608038,27.420667 16.608038,39.788075s-8.312168,7.963861 -8.312168,7.963861s-7.366863,19.44119 -25.816617,26.514973c-18.449754,7.058167 -120.868707,45.066085 -129.197173,53.029946c-8.328467,7.979477 -7.383161,45.097316 -7.383161,45.097316l439.192157,0c0,0 0.961604,-37.117839 -7.366863,-45.097316c-8.344765,-7.963861 -110.763718,-45.971779 -129.213472,-53.029946zm-203.240665,-2.685851c-1.613539,-2.810775 -2.412159,-4.840778 -2.412159,-4.840778s-7.040896,3.732084 -7.040896,-6.745859s7.040896,6.745859 14.081791,-33.713679c0,0 19.541745,-5.246779 15.630136,-48.704476l-4.69393,0c0,0 2.330667,-9.22871 3.862714,-20.830962c-0.065193,-4.809548 0.09779,-9.931403 0.60304,-15.552952l0.619338,-6.652166c-0.342266,-7.682784 -1.743926,-14.662874 -5.085091,-19.144498c-11.734826,-15.724722 -16.428756,-26.21828 -42.229075,-33.713679c-25.800319,-7.495399 -16.428756,-6.011934 -35.188179,-5.246779c-18.775721,0.74954 -34.422156,10.477943 -34.422156,15.740337c0,0 -11.734826,0.74954 -16.428756,5.246779c-4.416858,4.231777 -11.49035,22.829735 -12.337866,29.435055l0,4.387931c0.766023,10.196865 4.204979,38.242149 7.643935,44.847469l-4.661334,1.49908c-3.89531,43.457697 15.630136,48.704476 15.630136,48.704476c7.040896,40.459538 14.081791,23.235736 14.081791,33.713679s-7.040896,6.745859 -7.040896,6.745859s-6.242275,16.505493 -21.88871,22.470581c-0.994201,0.37477 -2.265473,0.874463 -3.781222,1.436618l0,81.731077l9.371562,0c-0.472653,-19.956499 1.254974,-45.706317 12.158583,-56.121798c5.802219,-5.543472 24.822416,-14.662874 103.527242,-44.691315zm363.942586,-141.413189c-0.651935,-5.902626 -2.069893,-11.165021 -4.759124,-14.772182c-11.718528,-15.740337 -16.428756,-26.21828 -42.212776,-33.713679c-25.816617,-7.495399 -16.428756,-6.011934 -35.204478,-5.246779c-18.759423,0.74954 -34.405858,10.477943 -34.405858,15.740337c0,0 -11.718528,0.74954 -16.428756,5.246779c-4.416858,4.247393 -11.555544,22.985889 -12.354164,29.528748l0.537846,0l1.30387,14.256873c0.325967,3.607161 0.358564,6.80832 0.440056,10.071942c1.466853,10.399866 3.422658,21.080809 5.378462,24.812893l-4.661334,1.49908c-3.89531,43.457697 15.646435,48.704476 15.646435,48.704476c7.040896,40.459538 14.065493,23.235736 14.065493,33.713679s-7.040896,6.745859 -7.040896,6.745859s-0.863814,2.217389 -2.656634,5.27801c77.743221,29.669287 96.600435,38.726227 102.337461,44.254083c10.919907,10.415481 12.631236,36.149683 12.158583,56.121798l7.823217,0l0,-82.855387c-0.260774,-0.093692 -0.619338,-0.234231 -0.847515,-0.327924c-15.630136,-5.980704 -21.88871,-22.470581 -21.88871,-22.470581s-7.057194,3.732084 -7.057194,-6.745859s7.057194,6.745859 14.081791,-33.713679c0,0 13.103889,-3.57593 15.69533,-28.747977l0,-19.160113c-0.016298,-0.281077 -0.016298,-0.515309 -0.048895,-0.796386l-4.710229,0c0,0 3.504149,-13.897718 4.759124,-29.060285l0,-18.363727l0.048895,0z" stroke-width="1.5" stroke="#000" fill="#00bf00"/>
 </g>
</svg>