<svg width="580" height="400" xmlns="http://www.w3.org/2000/svg">
 <!-- Created with SVG Editor - http://github.com/mzalive/SVG Editor/ -->

 <g>
  <title>background</title>
  <rect x="-1" y="-1" width="582" height="402" id="canvas_background" fill="#fff"/>
  <g id="canvasGrid" display="none">
   <rect id="svg_1" width="100%" height="100%" x="0" y="0" stroke-width="0" fill="url(#gridpattern)"/>
  </g>
 </g>
 <g>
  <title>Layer 1</title>
  <g fill="#fff" id="svg_77">
   <g transform="matrix(1.14628, 0, 0, 1.00067, -848.249, -487.278)" id="svg_56">
    <g id="svg_58">
     <g id="svg_59">
      <path stroke="#000" fill="#00bf00" id="svg_60" d="m1198.183858,538.057302l-410.386,0c-12.747,0 -23.081,10.334 -23.081,23.081l0,26.274l456.548,0l0,-26.274c0,-12.747 -10.334,-23.081 -23.081,-23.081z"/>
      <path stroke="#000" fill="#00bf00" id="svg_61" d="m764.716858,808.504302c0,12.747 10.334,23.081 23.081,23.081l410.385,0c12.747,0 23.081,-10.334 23.081,-23.081l0,-153.602l-456.547,0l0,153.602zm196.171,-28.447l-29,0c-8.284,0 -15,-6.716 -15,-15s6.716,-15 15,-15l29,0c8.284,0 15,6.716 15,15s-6.716,15 -15,15zm152.296,-30l47,0c8.284,0 15,6.716 15,15s-6.716,15 -15,15l-47,0c-8.284,0 -15,-6.716 -15,-15s6.716,-15 15,-15zm-45.296,15c0,8.284 -6.716,15 -15,15l-29,0c-8.284,0 -15,-6.716 -15,-15s6.716,-15 15,-15l29,0c8.284,0 15,6.716 15,15zm-244.297,-72l224,0c8.284,0 15,6.716 15,15s-6.716,15 -15,15l-224,0c-8.284,0 -15,-6.716 -15,-15s6.716,-15 15,-15zm0,57l47,0c8.284,0 15,6.716 15,15s-6.715,15 -15,15l-47,0c-8.284,0 -15,-6.716 -15,-15s6.716,-15 15,-15z"/>
     </g>
    </g>
   </g>
   <g transform="matrix(1.14628, 0, 0, 1.00067, -848.249, -487.278)" id="svg_62"/>
   <g transform="matrix(1.14628, 0, 0, 1.00067, -848.249, -487.278)" id="svg_63"/>
   <g transform="matrix(1.14628, 0, 0, 1.00067, -848.249, -487.278)" id="svg_64"/>
   <g transform="matrix(1.14628, 0, 0, 1.00067, -848.249, -487.278)" id="svg_65"/>
   <g transform="matrix(1.14628, 0, 0, 1.00067, -848.249, -487.278)" id="svg_66"/>
   <g transform="matrix(1.14628, 0, 0, 1.00067, -848.249, -487.278)" id="svg_67"/>
   <g transform="matrix(1.14628, 0, 0, 1.00067, -848.249, -487.278)" id="svg_68"/>
   <g transform="matrix(1.14628, 0, 0, 1.00067, -848.249, -487.278)" id="svg_69"/>
   <g transform="matrix(1.14628, 0, 0, 1.00067, -848.249, -487.278)" id="svg_70"/>
   <g transform="matrix(1.14628, 0, 0, 1.00067, -848.249, -487.278)" id="svg_71"/>
   <g transform="matrix(1.14628, 0, 0, 1.00067, -848.249, -487.278)" id="svg_72"/>
   <g transform="matrix(1.14628, 0, 0, 1.00067, -848.249, -487.278)" id="svg_73"/>
   <g transform="matrix(1.14628, 0, 0, 1.00067, -848.249, -487.278)" id="svg_74"/>
   <g transform="matrix(1.14628, 0, 0, 1.00067, -848.249, -487.278)" id="svg_75"/>
   <g transform="matrix(1.14628, 0, 0, 1.00067, -848.249, -487.278)" id="svg_76"/>
  </g>
 </g>
</svg>