<svg width="580" height="400" xmlns="http://www.w3.org/2000/svg">
 <!-- Created with SVG Editor - http://github.com/mzalive/SVG Editor/ -->

 <g>
  <title>background</title>
  <rect x="-1" y="-1" width="582" height="402" id="canvas_background" fill="#fff"/>
  <g id="canvasGrid" display="none">
   <rect id="svg_1" width="100%" height="100%" x="0" y="0" stroke-width="0" fill="url(#gridpattern)"/>
  </g>
 </g>
 <g>
  <title>Layer 1</title>
  <g id="svg_86">
   <g transform="matrix(6.16931, 0, 0, 6.27961, -569.269, -398.344)" id="svg_81">
    <path stroke="#00bf00" fill="#00bf00" id="svg_83" d="m147.68127,84.547752a1.009,1.009 0 0 0 -0.95,-0.69l-4.97,0l-1.53,-4.72a1,1 0 0 0 -1.9,0l-1.53,4.72l-4.97,0a1.009,1.009 0 0 0 -0.95,0.69a0.991,0.991 0 0 0 0.37,1.12l4.01,2.92l-1.53,4.72a1,1 0 0 0 0.36,1.12a1.022,1.022 0 0 0 1.18,0l4.01,-2.92l4.01,2.92a1.086,1.086 0 0 0 0.59,0.19a1.036,1.036 0 0 0 0.59,-0.19a1,1 0 0 0 0.36,-1.12l-1.53,-4.72l4.01,-2.92a0.991,0.991 0 0 0 0.37,-1.12zm-6.14,2.85a1.006,1.006 0 0 0 -0.37,1.12l0.81,2.48l-2.11,-1.54a1.011,1.011 0 0 0 -1.18,0l-2.11,1.54l0.81,-2.48a1.006,1.006 0 0 0 -0.37,-1.12l-2.11,-1.54l2.61,0a0.991,0.991 0 0 0 0.95,-0.69l0.81,-2.48l0.81,2.48a0.991,0.991 0 0 0 0.95,0.69l2.61,0l-2.11,1.54z"/>
    <path stroke="#00bf00" fill="#00bf00" id="svg_84" d="m139.28127,74.237752a13.239,13.239 0 0 0 -1.13,26.43c0.38,0.03 0.75,0.05 1.13,0.05c0.34,0 0.69,-0.02 1.03,-0.05l0.1,0l0,-0.01a13.234,13.234 0 0 0 -1.13,-26.42zm9.81,18.72a0.01,0.01 0 0 0 -0.01,0.01a11.191,11.191 0 0 1 -8.85,5.7l-0.01,0.01l-0.01,0a9.1,9.1 0 0 1 -1.88,-0.01a11.236,11.236 0 1 1 10.76,-5.71z"/>
    <path stroke="#00bf00" fill="#00bf00" id="svg_85" d="m166.16127,116.707752l-3.76,-5.83q-4.035,-6.225 -8.06,-12.47c0.21,-0.08 0.45,-0.17 0.69,-0.25a4.179,4.179 0 0 0 2.67,-1.8a4.179,4.179 0 0 0 -0.25,-3.19a4.06,4.06 0 0 1 -0.37,-1.63a3.96,3.96 0 0 1 1.01,-1.25a4.234,4.234 0 0 0 1.64,-2.81a4.19,4.19 0 0 0 -1.64,-2.8a4.091,4.091 0 0 1 -1.01,-1.26a4.06,4.06 0 0 1 0.37,-1.63a4.157,4.157 0 0 0 0.25,-3.18a4.2,4.2 0 0 0 -2.67,-1.8a4.218,4.218 0 0 1 -1.49,-0.71a4.362,4.362 0 0 1 -0.36,-1.61a4.191,4.191 0 0 0 -1.15,-3a4.2,4.2 0 0 0 -3.17,-0.45a4.081,4.081 0 0 1 -1.65,0a4.051,4.051 0 0 1 -1.01,-1.27a4.212,4.212 0 0 0 -2.37,-2.23a4.132,4.132 0 0 0 -3.02,0.96a4.143,4.143 0 0 1 -1.53,0.73a4.143,4.143 0 0 1 -1.53,-0.73a4.122,4.122 0 0 0 -3.01,-0.96a4.2,4.2 0 0 0 -2.38,2.23a4.2,4.2 0 0 1 -1,1.27a4.136,4.136 0 0 1 -1.66,0a4.174,4.174 0 0 0 -3.16,0.45a4.164,4.164 0 0 0 -1.16,3.01a3.961,3.961 0 0 1 -0.37,1.6a3.944,3.944 0 0 1 -1.47,0.7a4.226,4.226 0 0 0 -2.68,1.8a4.179,4.179 0 0 0 0.25,3.19a4.06,4.06 0 0 1 0.37,1.63a4.091,4.091 0 0 1 -1.01,1.26a4.19,4.19 0 0 0 -1.64,2.8a4.234,4.234 0 0 0 1.64,2.81a3.96,3.96 0 0 1 1.01,1.25a4.06,4.06 0 0 1 -0.37,1.63a4.157,4.157 0 0 0 -0.25,3.18a4.142,4.142 0 0 0 2.67,1.8c0.23,0.09 0.47,0.17 0.69,0.26q-4.035,6.24 -8.06,12.47l-3.76,5.83a0.981,0.981 0 0 0 0.01,1.1a0.992,0.992 0 0 0 1.01,0.42l6.83,-1.27l1.66,6.76a1,1 0 0 0 0.81,0.74a0.875,0.875 0 0 0 0.16,0.02a0.985,0.985 0 0 0 0.84,-0.46l10.78,-16.69c0.08,0.02 0.15,0.07 0.23,0.09a2.2,2.2 0 0 0 0.5,0.06a5.009,5.009 0 0 0 2.52,-1.02a4.143,4.143 0 0 1 1.53,-0.73a4.143,4.143 0 0 1 1.53,0.73a4.1,4.1 0 0 0 3.03,0.96c0.08,-0.02 0.15,-0.07 0.22,-0.09l10.78,16.69a0.985,0.985 0 0 0 0.84,0.46a0.875,0.875 0 0 0 0.16,-0.02a1,1 0 0 0 0.81,-0.74l1.66,-6.76l6.83,1.27a1,1 0 0 0 1.01,-0.42a0.981,0.981 0 0 0 0.01,-1.1zm-42.86,4.27l-1.33,-5.41a1,1 0 0 0 -1.15,-0.75l-5.48,1.02l2.5,-3.87q3.75,-5.82 7.52,-11.64a0.784,0.784 0 0 1 0.02,0.14a4.191,4.191 0 0 0 1.15,3a4.205,4.205 0 0 0 3.17,0.45a4.081,4.081 0 0 1 1.65,0a3.935,3.935 0 0 1 1.01,1.27c0.19,0.29 0.38,0.58 0.58,0.86l-9.64,14.93zm20.38,-15.71a0.7,0.7 0 0 1 -0.3,0.2c-0.28,0.06 -1.02,-0.39 -1.5,-0.7a5.071,5.071 0 0 0 -2.6,-1.04a5.071,5.071 0 0 0 -2.6,1.04c-0.48,0.31 -1.22,0.77 -1.49,0.71a0.828,0.828 0 0 1 -0.32,-0.22a6.488,6.488 0 0 1 -0.81,-1.13a5.026,5.026 0 0 0 -1.83,-2.01a3.246,3.246 0 0 0 -1.45,-0.29a11.376,11.376 0 0 0 -1.3,0.1c-0.62,0.07 -1.46,0.17 -1.7,-0.02s-0.34,-1.04 -0.41,-1.66a5.025,5.025 0 0 0 -0.79,-2.64a1.7,1.7 0 0 0 -0.27,-0.27a1.249,1.249 0 0 0 -0.12,-0.09l-0.01,-0.01l-0.01,0a6.3,6.3 0 0 0 -1.98,-0.97c-0.59,-0.21 -1.39,-0.49 -1.53,-0.79c-0.14,-0.28 0.14,-1.07 0.34,-1.65a4.932,4.932 0 0 0 0.43,-2.73a4.848,4.848 0 0 0 -1.55,-2.23c-0.44,-0.44 -1.05,-1.05 -1.05,-1.39s0.61,-0.95 1.05,-1.39a4.848,4.848 0 0 0 1.55,-2.23a4.932,4.932 0 0 0 -0.43,-2.73c-0.2,-0.58 -0.48,-1.37 -0.34,-1.66s0.95,-0.57 1.54,-0.78a4.864,4.864 0 0 0 2.37,-1.34a4.91,4.91 0 0 0 0.8,-2.63c0.07,-0.62 0.16,-1.46 0.41,-1.66s1.08,-0.1 1.7,-0.03a5.007,5.007 0 0 0 2.75,-0.19a4.956,4.956 0 0 0 1.83,-2.01c0.33,-0.54 0.79,-1.27 1.12,-1.34c0.28,-0.07 1.02,0.4 1.5,0.7a5.071,5.071 0 0 0 2.6,1.04a5.071,5.071 0 0 0 2.6,-1.04c0.48,-0.3 1.21,-0.76 1.5,-0.7c0.33,0.07 0.79,0.8 1.12,1.34a4.956,4.956 0 0 0 1.83,2.01a5.007,5.007 0 0 0 2.75,0.19c0.62,-0.07 1.46,-0.17 1.7,0.02s0.34,1.04 0.41,1.66a5.025,5.025 0 0 0 0.79,2.64a5.024,5.024 0 0 0 2.39,1.35c0.59,0.2 1.39,0.48 1.53,0.78c0.14,0.28 -0.14,1.07 -0.34,1.65a4.932,4.932 0 0 0 -0.43,2.73a4.848,4.848 0 0 0 1.55,2.23c0.44,0.44 1.05,1.05 1.05,1.39s-0.61,0.95 -1.05,1.39a4.848,4.848 0 0 0 -1.55,2.23a4.932,4.932 0 0 0 0.43,2.73c0.2,0.58 0.48,1.37 0.34,1.66s-0.95,0.58 -1.53,0.78a6.074,6.074 0 0 0 -2.07,1.02a3.107,3.107 0 0 0 -0.31,0.32a4.91,4.91 0 0 0 -0.8,2.63c-0.07,0.62 -0.16,1.46 -0.41,1.66s-1.08,0.1 -1.7,0.03a4.916,4.916 0 0 0 -2.75,0.19a5.026,5.026 0 0 0 -1.83,2.01a6.464,6.464 0 0 1 -0.82,1.14zm14.06,9.55a1,1 0 0 0 -1.15,0.75l-1.33,5.41l-9.64,-14.93c0.2,-0.28 0.39,-0.57 0.58,-0.86a4.07,4.07 0 0 1 1,-1.27a4.136,4.136 0 0 1 1.66,0a4.174,4.174 0 0 0 3.16,-0.45a4.157,4.157 0 0 0 1.16,-3a0.675,0.675 0 0 1 0.02,-0.14q3.765,5.82 7.52,11.64l2.5,3.87l-5.48,-1.02z"/>
   </g>
  </g>
  <ellipse ry="63.499997" rx="56.5" id="svg_87" cy="147.49998" cx="291.499999" stroke-width="1.5" stroke="#ffffff" fill="#ffffff"/>
  <text transform="matrix(3.6432, 0, 0, 3.20142, -762.889, -183.49)" xml:space="preserve" text-anchor="start" font-family="Helvetica, Arial, sans-serif" font-size="40" id="svg_88" y="119.187638" x="277.87686" stroke-width="0" stroke="#ffffff" fill="#00bf00">8</text>
  <path d="m211.5,284.5c0,0 0.24437,-1.985016 0,0c-0.503769,4.092224 -0.651794,4.705811 2,-2c2.236862,-5.656525 2.414215,-8.585785 1,-10c-4.949753,-4.949738 -33.658813,10.65625 -31,18c0.680847,1.880554 27,-18 27,-20c0,-2 -0.683563,2.229126 -8,12c-3.837936,5.125458 -4,6 -3,6l1,0" id="svg_89" stroke-width="1.5" stroke="#ffffff" fill="none"/>
  <rect transform="rotate(123.492, 179.43, 283.775)" id="svg_94" height="15" width="100.595975" y="276.275092" x="129.132333" stroke-width="1.5" stroke="#00bf00" fill="#00bf00"/>
  <rect transform="rotate(123.492, 192.43, 287.775)" id="svg_95" height="15" width="100.595975" y="280.275092" x="142.132333" stroke-width="1.5" stroke="#00bf00" fill="#00bf00"/>
  <rect transform="rotate(123.492, 206.43, 291.775)" id="svg_96" height="15" width="100.595975" y="284.275092" x="156.132333" stroke-width="1.5" stroke="#00bf00" fill="#00bf00"/>
  <rect transform="rotate(123.492, 216.43, 304.275)" id="svg_97" height="17.759102" width="104.765788" y="295.39568" x="164.046772" stroke-width="1.5" stroke="#00bf00" fill="#00bf00"/>
  <rect transform="rotate(-121.339, 364.121, 304.268)" id="svg_98" height="15" width="108.321121" y="296.767672" x="309.96085" stroke-width="1.5" stroke="#00bf00" fill="#00bf00"/>
  <rect transform="rotate(-121.339, 375.121, 293.268)" id="svg_99" height="15" width="108.321121" y="285.767672" x="320.96085" stroke-width="1.5" stroke="#00bf00" fill="#00bf00"/>
  <rect transform="rotate(-121.339, 389.629, 287.176)" id="svg_100" height="15" width="98.739871" y="279.676149" x="340.258988" stroke-width="1.5" stroke="#00bf00" fill="#00bf00"/>
  <rect transform="rotate(-121.339, 404.121, 280.268)" id="svg_101" height="15" width="108.321121" y="272.767672" x="349.96085" stroke-width="1.5" stroke="#00bf00" fill="#00bf00"/>
 </g>
</svg>