<svg width="580" height="400" xmlns="http://www.w3.org/2000/svg">
 <!-- Created with SVG Editor - http://github.com/mzalive/SVG Editor/ -->

 <g>
  <title>background</title>
  <rect x="-1" y="-1" width="582" height="402" id="canvas_background" fill="#fff"/>
  <g id="canvasGrid" display="none">
   <rect id="svg_1" width="100%" height="100%" x="0" y="0" stroke-width="0" fill="url(#gridpattern)"/>
  </g>
 </g>
 <g>
  <title>Layer 1</title>
  <rect rx="20" id="svg_41" height="140" width="63" y="31.5" x="138.5" fill-opacity="null" stroke-opacity="null" stroke-width="1.5" stroke="#000" fill="#00bf00"/>
  <rect rx="20" id="svg_42" height="140" width="63" y="30.5" x="148.5" fill-opacity="null" stroke-opacity="null" stroke-width="1.5" stroke="#000" fill="#00bf00"/>
  <rect rx="15" id="svg_44" height="43" width="46" y="80.5" x="169.500001" fill-opacity="null" stroke-opacity="null" stroke-width="1.5" stroke="#000" fill="#00bf00"/>
  <rect rx="18" id="svg_45" height="285.000011" width="45" y="79.5" x="202.5" fill-opacity="null" stroke-opacity="null" stroke-width="1.5" stroke="#000" fill="#00bf00"/>
  <rect rx="18" id="svg_46" height="285.000011" width="45" y="78.5" x="212.5" fill-opacity="null" stroke-opacity="null" stroke-width="1.5" stroke="#000" fill="#00bf00"/>
  <rect rx="20" id="svg_47" height="140" width="63" y="31.5" x="333.5" fill-opacity="null" stroke-opacity="null" stroke-width="1.5" stroke="#000" fill="#00bf00"/>
  <rect rx="20" id="svg_48" height="140" width="63" y="30.5" x="343.5" fill-opacity="null" stroke-opacity="null" stroke-width="1.5" stroke="#000" fill="#00bf00"/>
  <rect rx="15" id="svg_49" height="43" width="46" y="80.5" x="364.500001" fill-opacity="null" stroke-opacity="null" stroke-width="1.5" stroke="#000" fill="#00bf00"/>
  <rect rx="18" id="svg_50" height="285.000011" width="45" y="79.5" x="397.5" fill-opacity="null" stroke-opacity="null" stroke-width="1.5" stroke="#000" fill="#00bf00"/>
  <rect rx="18" id="svg_51" height="285.000011" width="45" y="78.5" x="407.5" fill-opacity="null" stroke-opacity="null" stroke-width="1.5" stroke="#000" fill="#00bf00"/>
 </g>
</svg>